<mxfile host="app.diagrams.net" agent="Mozilla/5.0 (Windows NT 10.0; Win64; x64) AppleWebKit/537.36 (KHTML, like Gecko) Chrome/126.0.0.0 Safari/537.36 Edg/126.0.0.0" version="25.0.1">
  <diagram name="Page-1" id="74e2e168-ea6b-b213-b513-2b3c1d86103e">
    <mxGraphModel dx="837" dy="532" grid="1" gridSize="10" guides="1" tooltips="1" connect="1" arrows="1" fold="1" page="1" pageScale="1" pageWidth="1100" pageHeight="850" background="none" math="0" shadow="0">
      <root>
        <mxCell id="0" />
        <mxCell id="1" parent="0" />
        <mxCell id="5-zntsRpnWObxNZoc25G-1" value="Relebant Docs" style="rounded=1;whiteSpace=wrap;html=1;" vertex="1" parent="1">
          <mxGeometry x="190" y="100" width="120" height="40" as="geometry" />
        </mxCell>
        <mxCell id="5-zntsRpnWObxNZoc25G-4" value="Response" style="rounded=1;whiteSpace=wrap;html=1;" vertex="1" parent="1">
          <mxGeometry x="190" y="160" width="120" height="40" as="geometry" />
        </mxCell>
        <mxCell id="5-zntsRpnWObxNZoc25G-5" value="Output" style="rounded=1;whiteSpace=wrap;html=1;" vertex="1" parent="1">
          <mxGeometry x="190" y="220" width="120" height="40" as="geometry" />
        </mxCell>
        <mxCell id="5-zntsRpnWObxNZoc25G-6" value="Label" style="rounded=1;whiteSpace=wrap;html=1;" vertex="1" parent="1">
          <mxGeometry x="450" y="220" width="120" height="40" as="geometry" />
        </mxCell>
        <mxCell id="5-zntsRpnWObxNZoc25G-8" value="Docs Candidates" style="rounded=1;whiteSpace=wrap;html=1;" vertex="1" parent="1">
          <mxGeometry x="450" y="100" width="120" height="40" as="geometry" />
        </mxCell>
        <mxCell id="5-zntsRpnWObxNZoc25G-9" value="Sample Response" style="rounded=1;whiteSpace=wrap;html=1;" vertex="1" parent="1">
          <mxGeometry x="450" y="160" width="120" height="40" as="geometry" />
        </mxCell>
        <mxCell id="5-zntsRpnWObxNZoc25G-11" value="Query" style="rounded=1;whiteSpace=wrap;html=1;strokeColor=#00FFFF;" vertex="1" parent="1">
          <mxGeometry x="340" y="30" width="90" height="30" as="geometry" />
        </mxCell>
        <mxCell id="5-zntsRpnWObxNZoc25G-12" value="" style="curved=1;endArrow=classic;html=1;rounded=0;exitX=1;exitY=0.5;exitDx=0;exitDy=0;entryX=0.5;entryY=1;entryDx=0;entryDy=0;strokeColor=#753A00;" edge="1" parent="1" source="5-zntsRpnWObxNZoc25G-1" target="5-zntsRpnWObxNZoc25G-11">
          <mxGeometry width="50" height="50" relative="1" as="geometry">
            <mxPoint x="390" y="140" as="sourcePoint" />
            <mxPoint x="440" y="90" as="targetPoint" />
            <Array as="points">
              <mxPoint x="320" y="120" />
              <mxPoint x="360" y="90" />
            </Array>
          </mxGeometry>
        </mxCell>
        <mxCell id="5-zntsRpnWObxNZoc25G-13" value="" style="curved=1;endArrow=classic;html=1;rounded=0;exitX=1;exitY=0.5;exitDx=0;exitDy=0;entryX=1;entryY=0.5;entryDx=0;entryDy=0;strokeColor=#00FFFF;" edge="1" parent="1" source="5-zntsRpnWObxNZoc25G-4" target="5-zntsRpnWObxNZoc25G-1">
          <mxGeometry width="50" height="50" relative="1" as="geometry">
            <mxPoint x="340" y="190" as="sourcePoint" />
            <mxPoint x="415" y="130" as="targetPoint" />
            <Array as="points">
              <mxPoint x="370" y="180" />
              <mxPoint x="380" y="140" />
            </Array>
          </mxGeometry>
        </mxCell>
        <mxCell id="5-zntsRpnWObxNZoc25G-14" value="" style="curved=1;endArrow=classic;html=1;rounded=0;exitX=1;exitY=0.5;exitDx=0;exitDy=0;entryX=0;entryY=0.5;entryDx=0;entryDy=0;" edge="1" parent="1" target="5-zntsRpnWObxNZoc25G-6">
          <mxGeometry width="50" height="50" relative="1" as="geometry">
            <mxPoint x="310" y="239.66" as="sourcePoint" />
            <mxPoint x="430" y="239.66" as="targetPoint" />
            <Array as="points">
              <mxPoint x="320" y="239.66" />
            </Array>
          </mxGeometry>
        </mxCell>
        <mxCell id="5-zntsRpnWObxNZoc25G-15" value="" style="endArrow=classic;html=1;rounded=0;entryX=0;entryY=0.5;entryDx=0;entryDy=0;strokeColor=#00FFFF;" edge="1" parent="1" target="5-zntsRpnWObxNZoc25G-9">
          <mxGeometry width="50" height="50" relative="1" as="geometry">
            <mxPoint x="310" y="180" as="sourcePoint" />
            <mxPoint x="400" y="270" as="targetPoint" />
          </mxGeometry>
        </mxCell>
        <mxCell id="5-zntsRpnWObxNZoc25G-18" value="" style="endArrow=classic;html=1;rounded=0;strokeColor=#753A00;entryX=0;entryY=0.5;entryDx=0;entryDy=0;" edge="1" parent="1" target="5-zntsRpnWObxNZoc25G-8">
          <mxGeometry width="50" height="50" relative="1" as="geometry">
            <mxPoint x="315" y="119.66" as="sourcePoint" />
            <mxPoint x="430" y="120" as="targetPoint" />
            <Array as="points">
              <mxPoint x="385" y="119.66" />
            </Array>
          </mxGeometry>
        </mxCell>
        <mxCell id="5-zntsRpnWObxNZoc25G-20" value="" style="curved=1;endArrow=classic;html=1;rounded=0;entryX=0.5;entryY=1;entryDx=0;entryDy=0;strokeColor=#00FFFF;" edge="1" parent="1" target="5-zntsRpnWObxNZoc25G-11">
          <mxGeometry width="50" height="50" relative="1" as="geometry">
            <mxPoint x="310" y="180" as="sourcePoint" />
            <mxPoint x="380" y="60" as="targetPoint" />
            <Array as="points">
              <mxPoint x="370" y="130" />
            </Array>
          </mxGeometry>
        </mxCell>
      </root>
    </mxGraphModel>
  </diagram>
</mxfile>
